<svg xmlns="http://www.w3.org/2000/svg" width="512" height="512" viewBox="0 0 512 512" data-bbox="175.004 168.976 161.991 174.048" style="">
  <path id="XMLID_2103_" class="st0" d="M70.41 192.23l0.14-0.06c9.38-3.89 20.37 0.18 24.52 9.46c4.3 9.63-0.21 20.84-9.89 24.85&#xA;&#x9;l-0.36 0.15c-3.83 1.58-5.18 6.32-2.77 9.7c2.58 3.61 5.33 7.05 8.25 10.31l0 0l40.84-40.84c-8.57-10.6-13.71-24.1-13.71-38.79&#xA;&#x9;c0-34.1 27.65-61.75 61.75-61.75c14.7 0 28.19 5.14 38.79 13.71l40.83-40.83v0l39.22-39.22c0 0-62.35 53.5-83.85 44.13&#xA;&#x9;c-9.67-4.21-14.59-14.89-10.58-24.56l0.14-0.35c1.58-3.82-0.8-8.13-4.88-8.81c-13.02-2.19-26.49-2.24-39.89 0.07&#xA;&#x9;c-4.14 0.72-6.56 5.1-4.95 8.98c0.99 2.4 1.47 4.91 1.47 7.39c0 6.89-3.69 13.52-10.16 16.76c-9.8 4.9-21.5 0.41-25.62-9.52&#xA;&#x9;c-1.1-2.65-3.64-4.17-6.25-4.17c-1.35 0-2.72 0.4-3.91 1.26C98.6 77.95 89.26 87.48 81.72 98.17c-2.41 3.43-1.02 8.21 2.85 9.82&#xA;&#x9;c7.24 3 11.86 10.04 11.86 17.5c0 1.9-0.3 3.83-0.93 5.72c-3.46 10.39-14.91 15.49-24.85 11.38l-0.35-0.14&#xA;&#x9;c-3.82-1.58-8.13 0.8-8.81 4.88c-2.2 13.06-2.24 26.59 0.1 40.04C62.31 191.44 66.59 193.81 70.41 192.23z" fill="#ffdf26" transform="matrix(0.6793977618217468, 0, 0, 0.6793977618217468, 134.35085224112697, 142.53377575510308)" />
  <path id="XMLID_2102_" class="st1" d="M287.95 141.78l-0.14 0.06c-9.38 3.89-20.37-0.18-24.52-9.46c-4.3-9.63 0.21-20.84 9.89-24.85&#xA;&#x9;l0.36-0.15c3.83-1.58 5.18-6.32 2.77-9.7c-2.58-3.61-5.33-7.05-8.25-10.31l0 0l-40.84 40.84c8.57 10.6 13.71 24.1 13.71 38.79&#xA;&#x9;c0 34.1-27.65 61.75-61.75 61.75c-14.7 0-28.19-5.14-38.79-13.71l-40.83 40.83v0L60.34 295.1c0 0 62.35-53.5 83.85-44.13&#xA;&#x9;c9.67 4.21 14.59 14.89 10.58 24.56l-0.14 0.35c-1.58 3.82 0.8 8.13 4.88 8.81c13.02 2.19 26.49 2.24 39.89-0.07&#xA;&#x9;c4.14-0.72 6.56-5.1 4.95-8.98c-0.99-2.4-1.47-4.91-1.47-7.39c0-6.89 3.69-13.52 10.16-16.76c9.8-4.9 21.5-0.41 25.62 9.52&#xA;&#x9;c1.1 2.65 3.64 4.17 6.25 4.17c1.35 0 2.72-0.4 3.91-1.26c10.94-7.85 20.28-17.37 27.82-28.07c2.41-3.43 1.02-8.21-2.85-9.82&#xA;&#x9;c-7.24-3-11.86-10.04-11.86-17.5c0-1.9 0.3-3.83 0.93-5.72c3.46-10.39 14.91-15.49 24.85-11.38l0.35 0.14&#xA;&#x9;c3.82 1.58 8.13-0.8 8.81-4.88c2.2-13.06 2.24-26.59-0.1-40.04C296.05 142.57 291.77 140.2 287.95 141.78z" fill="#F2F2F2" transform="matrix(0.6793977618217468, 0, 0, 0.6793977618217468, 134.18013690909572, 142.53377575510308)" />
</svg>